<?xml version="1.0" standalone="no"?>
<!DOCTYPE svg PUBLIC "-//W3C//DTD SVG 20010904//EN"
 "http://www.w3.org/TR/2001/REC-SVG-20010904/DTD/svg10.dtd">
<svg version="1.0" xmlns="http://www.w3.org/2000/svg"
 width="356.000000pt" height="142.000000pt" viewBox="0 0 356.000000 142.000000"
 preserveAspectRatio="xMidYMid meet">

<g transform="translate(0.000000,142.000000) scale(0.100000,-0.100000)"
fill="#000000" stroke="none">
<path d="M440 1042 l-45 -7 0 -220 0 -220 35 0 35 0 3 88 3 88 46 -3 46 -3 37
-85 c36 -83 38 -85 74 -88 46 -4 46 3 -3 109 l-39 84 35 30 c66 57 55 173 -20
211 -35 19 -136 26 -207 16z m171 -80 c27 -23 30 -73 5 -101 -21 -23 -70 -34
-114 -25 l-32 7 0 68 0 69 59 0 c42 0 65 -5 82 -18z"/>
<path d="M1153 983 c-7 -2 -13 -18 -13 -34 0 -22 -5 -29 -20 -29 -16 0 -20 -7
-20 -30 0 -23 4 -30 20 -30 19 0 20 -7 20 -99 0 -123 11 -156 55 -171 19 -6
50 -8 69 -4 31 5 36 10 36 35 0 26 -3 29 -33 29 -51 0 -57 13 -57 117 l0 93
45 0 c43 0 45 1 45 30 0 29 -2 30 -45 30 -45 0 -45 0 -45 35 0 30 -3 35 -22
34 -13 0 -29 -3 -35 -6z"/>
<path d="M850 917 c-56 -20 -80 -66 -80 -154 0 -84 17 -134 54 -158 34 -23
131 -23 172 -2 84 43 86 260 3 303 -41 21 -108 26 -149 11z m116 -78 c14 -16
19 -36 19 -84 0 -78 -19 -105 -76 -105 -52 0 -69 26 -69 105 0 79 17 105 69
105 26 0 44 -7 57 -21z"/>
<path d="M1420 921 c-42 -6 -45 -8 -48 -38 l-3 -32 70 6 c78 6 101 -3 101 -42
0 -20 -6 -23 -66 -28 -91 -7 -118 -28 -122 -94 -2 -42 1 -56 21 -79 21 -23 31
-27 73 -26 27 0 61 5 75 11 15 5 31 6 40 0 8 -5 22 -9 32 -9 15 0 17 13 17
136 0 78 -5 144 -11 156 -22 40 -78 53 -179 39z m118 -223 c-3 -41 -4 -43 -46
-51 -52 -10 -72 2 -72 45 0 33 23 46 83 47 l38 1 -3 -42z"/>
<path d="M1700 755 l0 -165 35 0 35 0 0 116 0 116 50 21 c43 18 50 25 50 49 0
32 -19 36 -64 13 -35 -18 -36 -18 -36 0 0 10 -11 15 -35 15 l-35 0 0 -165z"/>
<path d="M1920 913 c0 -5 18 -75 39 -157 38 -141 49 -165 79 -166 15 0 15 -6
2 -31 -9 -15 -22 -19 -65 -19 -51 0 -55 -2 -55 -24 0 -27 21 -36 87 -36 75 0
86 19 143 235 27 104 50 193 50 197 0 5 -15 8 -34 8 l-33 0 -32 -118 c-17 -65
-31 -124 -31 -130 0 -7 -4 -12 -8 -12 -5 0 -23 59 -42 130 l-33 130 -33 0
c-19 0 -34 -3 -34 -7z"/>
<path d="M60 220 l0 -130 55 0 c99 0 145 40 145 126 0 41 -5 59 -25 82 -25 30
-86 52 -144 52 l-31 0 0 -130z m125 96 c42 -18 55 -42 55 -104 0 -37 -5 -53
-22 -70 -28 -26 -70 -42 -109 -42 l-29 0 0 115 0 115 35 0 c20 0 51 -6 70 -14z"/>
<path d="M330 340 c0 -5 5 -10 10 -10 6 0 10 5 10 10 0 6 -4 10 -10 10 -5 0
-10 -4 -10 -10z"/>
<path d="M850 340 c0 -5 7 -10 15 -10 8 0 15 5 15 10 0 6 -7 10 -15 10 -8 0
-15 -4 -15 -10z"/>
<path d="M1364 339 c-4 -8 3 -9 23 -5 61 14 112 -19 98 -63 -6 -20 -45 -41
-78 -42 -13 0 -4 -6 22 -14 47 -15 61 -28 61 -61 0 -37 -33 -56 -89 -53 -58 4
-69 -7 -17 -17 105 -19 175 84 87 128 l-34 17 27 7 c51 12 55 78 6 104 -25 13
-97 13 -106 -1z"/>
<path d="M1628 320 c-18 -16 -28 -30 -22 -30 6 0 17 7 24 15 25 30 30 13 30
-100 0 -70 4 -115 10 -115 6 0 10 50 10 130 0 79 -4 130 -10 130 -5 0 -24 -13
-42 -30z"/>
<path d="M1823 328 c-49 -53 -21 -138 45 -138 16 0 37 7 48 15 29 22 33 18 24
-21 -12 -52 -45 -82 -94 -86 -32 -3 -37 -6 -22 -12 29 -14 87 6 110 37 15 21
22 47 24 102 4 68 2 76 -21 99 -34 34 -85 35 -114 4z m94 -10 c57 -54 -7 -146
-72 -104 -36 24 -37 79 -3 109 27 23 47 22 75 -5z"/>
<path d="M2075 325 c-16 -13 -26 -27 -22 -31 4 -4 15 0 25 9 10 10 20 17 23
17 2 0 3 -52 1 -115 -2 -76 0 -115 7 -115 7 0 11 45 11 130 0 72 -3 130 -7
130 -5 -1 -21 -12 -38 -25z"/>
<path d="M598 324 c-5 -4 -8 -18 -8 -30 0 -15 -7 -24 -22 -27 l-23 -4 23 -2
c21 -1 22 -5 22 -75 0 -54 4 -79 16 -90 18 -19 50 -21 60 -5 4 7 1 10 -7 7 -8
-3 -22 -1 -31 4 -15 7 -18 22 -18 83 0 73 0 74 28 78 l27 4 -27 2 c-22 1 -27
6 -30 32 -2 17 -6 27 -10 23z"/>
<path d="M1148 324 c-5 -4 -8 -18 -8 -30 0 -15 -7 -24 -22 -27 l-23 -4 23 -2
c20 -1 22 -6 22 -63 0 -35 3 -73 6 -86 7 -26 50 -40 67 -23 9 9 8 11 -4 6 -32
-12 -49 22 -49 95 0 67 1 69 28 73 l27 4 -27 2 c-22 1 -27 6 -30 32 -2 17 -6
27 -10 23z"/>
<path d="M432 264 c-12 -8 -22 -24 -22 -34 0 -20 38 -55 71 -65 15 -5 19 -14
17 -33 -3 -24 -8 -28 -48 -33 -44 -5 -44 -5 -16 -14 43 -12 81 12 81 50 0 24
-7 34 -42 53 -62 34 -57 76 9 74 15 0 26 4 23 9 -9 14 -48 11 -73 -7z"/>
<path d="M768 269 c-10 -5 -18 -15 -18 -21 0 -9 3 -9 12 0 7 7 20 12 30 12 10
0 18 5 18 10 0 13 -20 12 -42 -1z"/>
<path d="M990 267 c-50 -25 -66 -104 -30 -150 24 -30 79 -44 107 -28 15 9 11
10 -24 11 -33 0 -46 6 -62 26 -43 55 -11 134 55 134 21 0 33 4 29 10 -8 14
-45 12 -75 -3z"/>
<path d="M330 180 c0 -53 4 -90 10 -90 6 0 10 37 10 90 0 53 -4 90 -10 90 -6
0 -10 -37 -10 -90z"/>
<path d="M720 180 c0 -107 17 -121 22 -17 4 79 0 107 -13 107 -5 0 -9 -40 -9
-90z"/>
<path d="M864 180 c0 -52 1 -74 3 -47 2 26 2 68 0 95 -2 26 -3 4 -3 -48z"/>
</g>
</svg>
